<svg xmlns="http://www.w3.org/2000/svg" width="525.86" height="571.68" viewBox="0 0 525.86 571.68">
  <defs>
    <style>
      .cls-1 {
        fill: #fff;
      }
    </style>
  </defs>
  <g id="Layer_2" data-name="Layer 2">
    <g id="Layer_1-2" data-name="Layer 1">
      <g>
        <polygon class="cls-1" points="65.19 356.06 65.2 356.06 65.2 356.06 65.19 356.06"/>
        <polygon class="cls-1" points="206.78 456.31 206.78 456.31 206.78 456.31 206.78 456.31"/>
        <polygon class="cls-1" points="165.73 183.03 165.73 183.03 165.73 183.03 165.73 183.03"/>
        <path class="cls-1" d="M441.05,473.73a8.72,8.72,0,0,0,3.44-2.28,5.49,5.49,0,0,1,4.35-1.95A24,24,0,0,0,459,466.3a108.5,108.5,0,0,1,13.17-5.93c3.55-1.41,7.23-2.88,10.78-4.64,1.14-.56,2.27-1.15,3.39-1.74a71.43,71.43,0,0,1,9.17-4.23,90,90,0,0,0,9.68-4.28c1.3-.64,2.42-1.18,3.55-1.71a6,6,0,0,0,1.29-.88l.52-.26c6.39-1.35,9.69-6.42,12.34-10.49l1.11-1.67c2.78-4.12,2.4-8.43-1.1-12.47-2.26-2.59-5.31-3.58-8-4.44a4.56,4.56,0,0,0-3.41.19,20.33,20.33,0,0,1-3.28,1.18c-1.43.42-3.75,1.48-4.54,1.73s-2.07.31-1.74-1.3a13.15,13.15,0,0,0-.37-6.06,3.84,3.84,0,0,0-1-1.62l-.29-.28-.06-.39c-1.14-7.61-7.79-9.64-12.18-11-.24-.07-.46-.11-.67-.15l-.56-.08-.28-.49a7.29,7.29,0,0,0-1.71-1.86l-.45-.38-.26-.82a11.15,11.15,0,0,0-1.17-4.84,17.55,17.55,0,0,1-.7-1.91,9.17,9.17,0,0,0-3.18-4.87l-.62-.49.22-.76a5.76,5.76,0,0,0-1.11-5.47,28.11,28.11,0,0,1-4.29-7.72c-.43-1-.85-2-1.31-3-.18-.38-.34-.76-.5-1.14a15.53,15.53,0,0,0-2.21-4.07l-.31-.38,0-.48a5.28,5.28,0,0,0-1.3-3.54l-.39-.53.29-.74-1.47-3L463.49,344c-.39-.82-.83-1.63-1.26-2.45a24.48,24.48,0,0,1-2.3-5.16,19.82,19.82,0,0,0-2.75-5.65,28.13,28.13,0,0,1-1.57-2.68c-1.32-2.77-2.75-5.49-4.26-8.08l-.74-1.23c-1.08-1.77-2.11-3.44-2.24-5.32a5.08,5.08,0,0,0-2-3.45l-.62-.55.43-1.1-.64-1c-.27-.4-.52-.81-.77-1.22a28.39,28.39,0,0,0-2.24-3.29,13.48,13.48,0,0,1-2.65-5.59,13.84,13.84,0,0,0-3.66-7,21.15,21.15,0,0,1-3.83-5.87l-.21-.4a7.26,7.26,0,0,1-.52-1.72c-.37-1.56-.87-3.67-2.84-5l-.29-.28a4.83,4.83,0,0,1-.57-1.35,7.13,7.13,0,0,0-2.23-3.62l-.33-.4c-1-1.89-2-3.7-3.11-5.46a51,51,0,0,1-4.79-9.28,12.48,12.48,0,0,0-4.39-6.37l-.55-.39.05-.67a4.82,4.82,0,0,0-.38-2.15,4.5,4.5,0,0,0-1.81-2.31,7.65,7.65,0,0,1-2.43-2.89,23.6,23.6,0,0,0-1.41-2.12,10.53,10.53,0,0,1-2.49-5,5.39,5.39,0,0,0-1.11-2.33c-3.51-4.59-6.06-9.64-8.76-15l-.19-.36c-.53-1.06-1.06-2.11-1.61-3.16a54.19,54.19,0,0,0-5-8,7.75,7.75,0,0,1-.95-2.12,9.09,9.09,0,0,0-3-4.68l-.28-.22-.13-.33a23.31,23.31,0,0,0-2.38-4.41c-1.3-2-2.42-3.8-2.36-5.94a4.33,4.33,0,0,0-1.71-3.41,3.29,3.29,0,0,1-.32-.31,11.83,11.83,0,0,0-2.56-2.27c-1.16-.82-1.83-1.33-2.14-2.27a14.66,14.66,0,0,0-3-4.76,23.86,23.86,0,0,1-1.49-1.88c-1.27-1.86-2.49-3.86-3.52-5.59-.3-.5-.61-1-.93-1.46a10.52,10.52,0,0,1-2-4.41,3.88,3.88,0,0,0-1.34-2.94c-2-1.5-3.12-3.83-4.26-6.29a24.78,24.78,0,0,0-3.94-6.54,22.27,22.27,0,0,1-3.43-6c-.52-1.15-1-2.27-1.58-3.34-.09-.18-.17-.36-.25-.56a6.31,6.31,0,0,0-1.73-2.72c-2.95-2.4-4.59-5.75-6.32-9.3-.76-1.55-1.5-3.06-2.36-4.53s-1.71-3.23-2.54-5c-.69-1.44-1.39-2.91-2.17-4.34-1-1.78-2-3.71-4-4.86l-.55-.32,0-.64a5.86,5.86,0,0,0-1.3-3.1c-.18-.24-.28-.37-.37-.51l-.14-.37a10.91,10.91,0,0,0-2.66-4.9c-3.89-4.27-6.43-9.29-9.12-14.6l-.18-.35c-.83-1.63-1.66-3.27-2.54-4.87a3,3,0,0,0-1-1.66c-1.47-1.17-2.06-2.94-2.76-5a25.61,25.61,0,0,0-1.36-3.47l-.19-.39c-.78-1.56-1.67-3.34-3.86-4.36l-.26-.17a6,6,0,0,1-1.2-1.72A36,36,0,0,1,297.33,55c-.44-1.14-.78-2.07-1.1-3-.43-1.21-.86-2.41-1.34-3.59a7.66,7.66,0,0,0-2.51-3A4.17,4.17,0,0,1,291.06,44a65.77,65.77,0,0,0-3.1-5.83c-.84-1.44-1.61-2.77-2.29-4.13A44,44,0,0,0,283.29,30a27.71,27.71,0,0,1-3-5.52,50.59,50.59,0,0,0-3.52-7.38c-.6-1.1-1.11-2-1.58-3-.06-.11-.11-.23-.17-.36a5.11,5.11,0,0,0-1.64-2.39,13,13,0,0,1-3.05-3.63A24.69,24.69,0,0,0,268,4.55l-.31-.39a9.4,9.4,0,0,0-3.22-2.82A20.24,20.24,0,0,0,259.64.19l-.77-.12a7.59,7.59,0,0,0-5.3,1.47l-.39.23a6.15,6.15,0,0,0-2.94,4.4c-.86,3.66-3.22,8.13-6.5,12.28a57.67,57.67,0,0,1-5.13,5.42,53.89,53.89,0,0,0-6.21,6.77,71.71,71.71,0,0,0-5.89,9.15A5.43,5.43,0,0,0,226,41.2l-.07.33-.24.24a39.65,39.65,0,0,0-5.95,8.78c-1,1.74-1.87,3.38-2.93,4.92a123.92,123.92,0,0,0-7.58,13.33c-.81,1.58-1.6,3.11-2.41,4.64l-.48.9A21,21,0,0,1,204,78.2a18.22,18.22,0,0,0-3.7,6.7l-.09.33-.31.39c-2.81,2.45-4.43,5.69-5.86,8.55a25.26,25.26,0,0,1-4.19,6.61,14.28,14.28,0,0,0-2.83,5.08,18.82,18.82,0,0,1-1.21,2.71c-4.34,7.39-8.25,13.82-11.93,19.65-1,1.66-2.13,3.31-3.21,5a140.8,140.8,0,0,0-7.59,12.48l-.28.35a20.27,20.27,0,0,0-3.52,4.38,17.22,17.22,0,0,1-2.52,3.27,43.83,43.83,0,0,0-6.71,8.43,53.83,53.83,0,0,1-4.26,5.82,28,28,0,0,0-3.69,5.38,6.85,6.85,0,0,1-1.83,1.88,9.91,9.91,0,0,0-3.23,3.8,18.06,18.06,0,0,1-1.19,2.19,15.15,15.15,0,0,0-2,4.17,8.53,8.53,0,0,1-2.35,3.5A16.85,16.85,0,0,0,129,192l-.59,1.08a13.62,13.62,0,0,1-3.57,4.79,11.88,11.88,0,0,0-3.67,5.3,32.88,32.88,0,0,1-4.59,7.38l-.67.9a224.47,224.47,0,0,0-15.84,24.11c-.89,1.58-1.67,3.2-2.43,4.77a49.45,49.45,0,0,1-4.22,7.52c-3,4.06-5.57,8.38-8.08,12.57-1.63,2.73-3.41,5.7-5.22,8.46a94.71,94.71,0,0,0-7.27,14.39l-3,6.79a110,110,0,0,0-4.46,10.65,60.07,60.07,0,0,1-5,10.22c-.93,1.62-1.83,3.19-2.67,4.79-.43.82-.84,1.64-1.25,2.47l-.15.31c-.32.64-.63,1.27-1,1.9-.22.43-.44.86-.65,1.29a20.67,20.67,0,0,1-1.67,3l-.9,1.19c-1.66,2.19-3.54,4.68-4.33,7.89l-.16.35c-.12.19-.4.54-.59.78l-.51.63c-.65.86-1.32,1.73-2,2.59l-.49.63c-1.91,2.46-3.89,5-5.71,7.67a4.37,4.37,0,0,0-.66,1.85l-.07.54-.47.3c-1.35.84-2,2.56-2.38,3.82l-.14.39a30.58,30.58,0,0,0-1,3.86l-.31,1.43a16.12,16.12,0,0,0-.53,3.49,12.78,12.78,0,0,0,.59,4.1c.33.43.42,1.1-.45,1.65a4.24,4.24,0,0,1-3,.6l-.74-.21c-3.17-.9-5.47-1.56-9.16.65-1.53.92-2.86,1.65-2.86,1.65L16,371a11.25,11.25,0,0,1-3.47.39,9.49,9.49,0,0,0-2.93.1c-3.8.75-6.11,4-7.34,5.68l-.28.27A3.56,3.56,0,0,0,.06,380a13.14,13.14,0,0,0,.12,3.28c.07.53.1.8.12,1.06L.45,386l1.73.33-.24,1.18a4.13,4.13,0,0,0,.31,2.33,3.18,3.18,0,0,0,2,2,7.76,7.76,0,0,1,1.21.58,6.84,6.84,0,0,0,4.73,1.15,14.5,14.5,0,0,1,6.48.3,6.47,6.47,0,0,0,4.09-.52,9,9,0,0,1,3.9-1.26,3.52,3.52,0,0,1,2.69.65c4.93,3.95,8.84,7.44,12,11.67,1.24,1.69,2.77,3.79,5.59,4.07l.55.06,1,1.48a9.55,9.55,0,0,0,2.84,2.58,12.16,12.16,0,0,1,1.37,1,3.92,3.92,0,0,1,.36.45c1.14,1.54,2.36,2.2,3.69,2.09l.49-.05,1.5,1.22a59.25,59.25,0,0,1,5.8,5.11,22.4,22.4,0,0,0,4.33,3.65l1.15.72c3,1.86,5.84,3.62,7.12,6.79a11.7,11.7,0,0,0,5.78,5.93,27.69,27.69,0,0,1,9.63,8.71,12.49,12.49,0,0,0,3.42,3,5.77,5.77,0,0,1,2.35,2.14l.23.5.42.34a55.75,55.75,0,0,1,5.89,5.74c2.74,3,5.58,6,9.28,8.24a22.84,22.84,0,0,1,8.1,8.18,12.13,12.13,0,0,0,6,5.45,14.24,14.24,0,0,1,3.28,2.13c.64.5,1.25,1,1.88,1.4l.33.2.35.19.17.35c1.25,2.64,3.37,4.19,5.43,5.68l.33.23a19.7,19.7,0,0,1,2.88,2.84c.68.77,1.37,1.56,2.17,2.31l.45.43c3.41,3.23,6.94,6.57,10.64,9.74l.47.39c2.45,2.09,4.75,4.05,6.19,6.67a19.61,19.61,0,0,0,6.62,6.58,39.75,39.75,0,0,1,7.35,6.95c1.5,1.67,3,3.38,4.77,5a44.49,44.49,0,0,1,4.23,4.73,52.27,52.27,0,0,0,4.14,4.73,21.76,21.76,0,0,0,12.64,6.14,10.68,10.68,0,0,0,6-1.25,18.07,18.07,0,0,1,1.89-.74,5.57,5.57,0,0,0,2.59-1.7c.9-1,1.75-.61,1.77.8a5.68,5.68,0,0,0,1.84,3.62l.62.66-.47.77c-.74,1.21-1.49,2.46-2.19,3.76-2.13,4-3.09,9.78,4.42,14.86a12.25,12.25,0,0,0,6.64,2.43,7.87,7.87,0,0,0,3.32-.74,34.93,34.93,0,0,1,7.23-2.2,53.1,53.1,0,0,0,6-1.64c.81-.3,1.66-.54,2.5-.78,3.17-.9,6.26-1.77,8.8-4.54l.25-.28.37-.08.64-.12a13.1,13.1,0,0,0,1.52-.33l1.87-.58,1.69-.53a3.42,3.42,0,0,0,2-1.64l.61-1,.58.36,2.46-1c1.15-.48,2.32-1,3.47-1.52.86-.42,1.63-.89,2.37-1.34l.26-.16c.45-.27.89-.54,1.35-.78s1.05-.58,1.58-.87a32.72,32.72,0,0,1,4.8-2.38,83.16,83.16,0,0,0,17-9,11.26,11.26,0,0,1,5.85-2.2c4-.15,4.68-.78,7.6-4.1l.51-.57.84.08a5.09,5.09,0,0,0,5.05-1.09c4.93-4.29,10.69-6.8,17.71-9.64l.54-.21a11.49,11.49,0,0,0,1.84-.82c.81-.48,1.61-1,2.41-1.57a17.24,17.24,0,0,1,4.22-2.37,33.48,33.48,0,0,0,8.08-3.39,9.49,9.49,0,0,1,3.39-1.07,11.45,11.45,0,0,0,4.92-2.26,51.6,51.6,0,0,1,5.35-3.22c1-.53,1.9-1.06,2.84-1.61a20.06,20.06,0,0,1,4.82-1.78,19.7,19.7,0,0,0,7.75-3.5,28.09,28.09,0,0,1,7.4-3.89c1.26-.52,2.35-1,3.41-1.46a13.84,13.84,0,0,1,3.66-1.15,38.22,38.22,0,0,0,16-6.85c.19-.14.36-.26.52-.36l0-.6,1.26.15c2.88.4,5.16-.76,7.18-1.76a10.72,10.72,0,0,1,3.94-1.38c1.77-.08,3-1.73,3.41-2.35a6.59,6.59,0,0,1,4.84-2.69,6.91,6.91,0,0,0,3.84-2.31c2.07-2.16,2.94-2.85,4.59-2.19l1,.4.95-.52C440.37,474,440.71,473.88,441.05,473.73ZM264.22,50.85c.06-.32.16-.8.26-1.14s.27-1.45.75-1.54,1,.79,1.37,1.22,2,3,3.06,4.22A36.49,36.49,0,0,1,273.93,60l1.21,2.09A43.65,43.65,0,0,1,277.53,67c.66,1.52,1.31,3,2.09,4.45a28.88,28.88,0,0,0,3.25,4.7c.35.39.7.76,1,1.11s.75.79,1,1.08l.3.36,0,.47a4.92,4.92,0,0,0,1.52,3.42l.64.76-.32,1,.48.86c.46.83.88,1.74,1.31,2.7,1.23,2.68,2.49,5.44,5.32,7.48A4.79,4.79,0,0,1,295.57,98a30.85,30.85,0,0,0,2.56,5.89l1.44,2.59a272.28,272.28,0,0,0,14.11,23.38c.19.27.39.54.59.8a6.36,6.36,0,0,1,1.08,1.74c1.31,4.48,3.87,8.11,6.34,11.62a52.94,52.94,0,0,1,4.3,6.8,10.05,10.05,0,0,0,2.25,3.17,9.08,9.08,0,0,1,2.42,4.16l.42,1.15a32.53,32.53,0,0,0,2.25,5.38,29.25,29.25,0,0,0,2.72,3.82c.59.75,1,1.29,1.43,1.85a9.63,9.63,0,0,1,1.22,2.05,52.16,52.16,0,0,0,3.25,6.81,47.83,47.83,0,0,1,2.92,6,11.42,11.42,0,0,0,3.9,4.93l.81.66c2.14,1.72,3.56,3,3.88,4.81.8,4.73,3.35,8.57,5.39,11.66.89,1.33,1.84,2.6,2.76,3.83a38.72,38.72,0,0,1,4.56,7.07,44.72,44.72,0,0,0,3.17,5.62,29.62,29.62,0,0,1,3.48,6.68,12.64,12.64,0,0,0,2.34,3.89,18.33,18.33,0,0,0,2.21,2.34l.55.47-.16.7a3.57,3.57,0,0,0,.5,3c.62.9,1.21,1.82,1.8,2.75,1.84,2.9,3.93,6.19,7.21,8.53l.71.51-.28.83a4.69,4.69,0,0,0,.5,4.42c1.34,2,2.65,4.11,3.91,6.15s2.45,4,3.73,5.9a51.27,51.27,0,0,1,2.93,5.29,40.4,40.4,0,0,0,4.66,7.74c2.3,2.83,3.66,6,5.21,9.88a66.31,66.31,0,0,0,4.56,8.79l.84,1.44a19.37,19.37,0,0,0,1.89,2.6,19.28,19.28,0,0,1,1.31,1.73,7.72,7.72,0,0,1,.37.91,6.17,6.17,0,0,0,1.92,3.12l.34.27.09.43a10.13,10.13,0,0,0,1.89,3.86,36,36,0,0,1,3.4,6.26c.54,1.16,1.07,2.31,1.65,3.43l.88,1.68a142.44,142.44,0,0,1,7.64,16.29,8.94,8.94,0,0,0,2.06,3.41c1.77,1.75,2.64,4,3.66,6.54.24.61.47,1.22.73,1.82.76,1.82,1.47,3.73,2.16,5.59a70.89,70.89,0,0,0,6,13.27l2.72,4.32s-5.13-2.71-5.63-2.82-.91.28-1.31.26-1.25-.8-1.58-1c-1.63-.76-3.25-1.56-4.86-2.36-2.89-1.43-5.81-2.87-8.77-4.1a106.34,106.34,0,0,1-9.95-4.57c-2.12-1.15-4.22-2.35-6.32-3.54-2.46-1.41-5-2.82-7.47-4.16-.85-.46-1.71-.88-2.58-1.29a34,34,0,0,1-4.48-2.44,25.51,25.51,0,0,0-5.75-2.71c-.77-.29-1.46-.55-2.13-.83a31,31,0,0,1-4.16-2.26c-2.5-1.52-5.23-3.19-8.53-3.72l-.48-.08-.29-.39c-2-2.71-4.8-3.73-7.29-4.62-.74-.26-1.47-.52-2.17-.83l-1.55-.66a27.94,27.94,0,0,1-4.25-2,9.48,9.48,0,0,0-3.21-1.16,4.1,4.1,0,0,1-1.94-.76l-.28-.4s-2.4-1.63-2.88-1.8a20.43,20.43,0,0,0-3.74-1l-.39-.06-.28-.28c-.13-.14-.34-.36-.49-.54a6.38,6.38,0,0,0-3.61-2.4,3.76,3.76,0,0,0-1.73,0l-.62.13-.46-.43a8.87,8.87,0,0,0-2.44-1.54l-1.34-.87c-2.47-1.76-3.72-3.86-3.8-6.42a19.21,19.21,0,0,0-1.27-5.56c-.25-.71-.44-1.27-.6-1.84-.58-2-1.05-4-1.55-6.15a67.82,67.82,0,0,0-3.54-11.89l-.1-.46a11.74,11.74,0,0,0-2.84-7.71l-.26-.29,0-.38a5,5,0,0,1,.24-1.55,6.51,6.51,0,0,0-.45-5.31,12.93,12.93,0,0,1-1-2c-.17-.37-.33-.75-.5-1.12s-.44-.9-.66-1.34a14.43,14.43,0,0,1-1.08-2.45c-.45-1.5-.8-3-1.19-4.66-.3-1.32-.58-2.52-.9-3.71l-.26-1a16.35,16.35,0,0,0-2.94-6.83l-.26-.32v-.41a11.83,11.83,0,0,0-.8-3.55,7.6,7.6,0,0,1-.55-2.36c.06-4-1.27-7.44-2.55-10.8-.3-.77-.59-1.53-.86-2.29a10.28,10.28,0,0,0-.67-1.4l-.36-.9a23.36,23.36,0,0,0-1.61-7.07c-.23-.67-.46-1.33-.67-2-.37-1.23-.68-2.48-1-3.81-.4-1.68-.79-3.3-1.33-4.93-.21-.63-.36-1.28-.51-1.93a15,15,0,0,0-2.22-5.73,6.55,6.55,0,0,1-.83-3.41l-.07-1a7.49,7.49,0,0,1,0-.82,9.52,9.52,0,0,0-.41-3.28l-.59-1.72a80.84,80.84,0,0,0-4.75-11.86l-.67-1.17.41-1-.27-.91c-.34-1.19-.72-2.37-1.08-3.55-.85-2.72-1.63-5.21-2.18-7.78a37.62,37.62,0,0,0-1.46-4.79,19,19,0,0,1-1.58-7l0-.65-.32-.56a13.18,13.18,0,0,1-1.23-4,18.45,18.45,0,0,0-1.28-4.43,15.14,15.14,0,0,1-1.08-3.86,17.89,17.89,0,0,0-1.4-4.79,14,14,0,0,1-1-3.83,21.4,21.4,0,0,0-1-3.94c-1.09-2.75-1.89-5.54-2.74-8.49a81.08,81.08,0,0,0-3.65-10.75c-.12-.3-.26-.59-.4-.88a8.79,8.79,0,0,1-.94-2.6,43.36,43.36,0,0,0-2.79-10.7l-.12-.35c-.29-.81-.58-1.63-.85-2.45-.11-.36-.26-.71-.41-1.07a6.27,6.27,0,0,1-.3-.76l-.06-.18v-.19c0-3.47-1.13-6.59-2.17-9.34a35.79,35.79,0,0,1-1.55-4.73c-.17-.75-.3-1.51-.43-2.28A20.13,20.13,0,0,0,264.7,70a12.21,12.21,0,0,1-1.08-4.28,24.15,24.15,0,0,0-.6-3.25,6.24,6.24,0,0,1-.11-2.19C263.26,57.17,263.64,54,264.22,50.85Zm-20.83,155a49.08,49.08,0,0,1,1.17-6.55,14.71,14.71,0,0,0,.26-5,9.64,9.64,0,0,1,.08-3.22,64.51,64.51,0,0,0,1.71-11.27c.24-2.66.47-5,.89-7.41.22-1.27.37-2.53.51-3.75.19-1.59.36-3,.64-4.32a11.73,11.73,0,0,0,.2-2.76,5.39,5.39,0,0,1,.27-2.38,23.93,23.93,0,0,0,1.29-4.08,25.53,25.53,0,0,1,.72-2.55,22.29,22.29,0,0,0,1.42-8.17,36.35,36.35,0,0,1,.37-5.1,29.9,29.9,0,0,0,.21-8.21l0-.37.17-.33a9.58,9.58,0,0,0,.67-1.64s.36-3.33.64-5.42c.25-1.83.4-2.45.69-2.48s.42.91.68,2.48.67,3.78.67,3.78a4.33,4.33,0,0,1,.27.85,56.52,56.52,0,0,0,2.25,12.73,72.64,72.64,0,0,1,1.82,8.37,7.1,7.1,0,0,0,.75,2.19,4.59,4.59,0,0,1,.32.7,15,15,0,0,0,1.34,3.45c1,2,1.39,2.94.68,4.24l-.46.84.61,2c2,6.38,3.82,12.41,4.33,18.83a4.14,4.14,0,0,0,.9,2.13l.2.5A89.87,89.87,0,0,0,273.17,199a2.39,2.39,0,0,1,.07.77,26.32,26.32,0,0,0,3.83,14.89,17.48,17.48,0,0,1,1.4,3.35l.5,1.44-.07.59a8.32,8.32,0,0,0,.55,6.21,18.22,18.22,0,0,1,.87,3.63l.18,1c.12.63.2,1.29.27,1.94a23,23,0,0,0,.78,4.28c.34,1.08.69,2.15,1,3.22a76.05,76.05,0,0,1,3.58,13.76c.08.6.2,1.18.33,1.78a10.6,10.6,0,0,1,.33,2.08,12.73,12.73,0,0,0,1.92,6,13.56,13.56,0,0,1,1.5,5.64l.08.64c.13,1,.21,2.09.29,3.13a30.12,30.12,0,0,0,1.8,9.31l.09.23v.24a12.83,12.83,0,0,0,.68,3.85,8.1,8.1,0,0,1,.51,2.63,14.37,14.37,0,0,0,.78,4.93,15.31,15.31,0,0,1,.59,2.66l.13,1.32-1.32,0a6.72,6.72,0,0,0-4.07,1.15,5.48,5.48,0,0,1-4.08.78c-3.09-.63-5.81.12-8.2.78l-1.5.39-.85.22a62.9,62.9,0,0,1-12,2.18,9.66,9.66,0,0,0-3.86.82c-2.88,1.45-6.1,1.7-9.5,2l-.59,0a13.31,13.31,0,0,0-3.26.79,5.73,5.73,0,0,1-3,.49L242,308l-.78.44a16.49,16.49,0,0,1-5.27,1.46,28.56,28.56,0,0,0-4.5,1l-1.9.64.35-2c.23-1.27.33-2.51.45-3.72.07-.82.14-1.55.23-2.29l.17-1.44a33.27,33.27,0,0,1,1.12-6.25,16.16,16.16,0,0,0,.62-5.17,18.23,18.23,0,0,1,.12-2.65c.45-3,.95-6.61,1.24-10.42.05-.62.08-1.25.12-1.87a33.42,33.42,0,0,1,1.11-7.79,26.94,26.94,0,0,0,.89-7.86c0-1,0-1.81.07-2.61l.23-.79a3.26,3.26,0,0,1,.24-.4,4.87,4.87,0,0,0,.71-4.84l-.13-.31.05-.33c0-.29.16-.75.24-1.07.14-.56.27-1.12.35-1.65l.29-2.2c.14-1,.27-2,.42-3l.91-5.9c.08-.51.21-1.06.34-1.6.5-2,1-4,.41-5.89a2.71,2.71,0,0,1,.35-1.83,7,7,0,0,0,.72-3.33,11,11,0,0,1,0-1.57,15.2,15.2,0,0,0,.05-2.17,14.17,14.17,0,0,1,.49-3.8,16.87,16.87,0,0,0,.54-5.48l0-.31.12-.28a6.3,6.3,0,0,0,.45-1.39C243.07,208.21,243.23,207,243.39,205.86ZM61,355.86a8,8,0,0,1,2.32-2.47,11.78,11.78,0,0,0,4.34-5.73l.24-.54c1.15-2.61,2.21-5,3.54-7.42.87-1.57,1.82-3.09,2.84-4.7,2.36-3.76,4.8-7.64,6.09-12.26a3.4,3.4,0,0,1,.46-.77,10.09,10.09,0,0,0,1-1.42l.69-1.27c1-1.89,2-3.68,2.79-5.54.54-1.25,1-2.51,1.37-3.72a23.25,23.25,0,0,1,2.41-5.63,14.09,14.09,0,0,0,1.74-4.26c.52-1.88.87-3,1.93-3.69l.76-.52.18-.91a23.46,23.46,0,0,1,2.25-5.75c.55-1.13,1.13-2.3,1.62-3.54.78-2,1.74-4.37,3.15-5.68a21,21,0,0,0,5-7.64c2-4.77,4.13-9.7,7.79-13.68a14.6,14.6,0,0,0,2-3,99.26,99.26,0,0,1,7.25-12,123.55,123.55,0,0,0,7.7-12.29,33.42,33.42,0,0,0,2-4.34c.46-1.16.9-2.26,1.42-3.27a8.73,8.73,0,0,1,2.17-2.31,13.87,13.87,0,0,0,3.32-3.66,52.27,52.27,0,0,1,4.41-6.29,61,61,0,0,0,4.68-6.67,32.22,32.22,0,0,1,3.34-4.44,26.66,26.66,0,0,0,5.16-8l.11-.3.23-.2a45.4,45.4,0,0,0,7.49-9.63h0l1,.65-1-.68a51,51,0,0,1,5.4-7.42,12.45,12.45,0,0,0,2.35-4.26,11.9,11.9,0,0,1,1.24-2.6,25.42,25.42,0,0,1,3.08-3.31c.86-.82,1.68-1.61,2.46-2.49a6.62,6.62,0,0,0,1.23-2.29,5,5,0,0,1,.32-.78c2.36-4.17,5.11-8.24,7.76-12.18a146.38,146.38,0,0,0,10.23-16.71,4.85,4.85,0,0,1,.62-.84l.51-.67a81.54,81.54,0,0,0,5.94-10,78.12,78.12,0,0,1,5.57-9.42,3.8,3.8,0,0,0,.65-1.74c.19-.58.3-.93.42-1.27a10.41,10.41,0,0,1,.81-2c.59-1,1.2-2,1.8-2.94A57.81,57.81,0,0,0,221,90.19,25.26,25.26,0,0,1,225,83.72l.24-.32c1.48-2,3-4,3.38-6.66a9.66,9.66,0,0,1,1.24-3,10.72,10.72,0,0,0,1.67-4.82c0-1.07.57-1.7,1.58-2.8a10.09,10.09,0,0,0,2.22-3.25,7.29,7.29,0,0,1,.64-1.16c.28-.43.51-.8.71-1.18,0,0,2.54-5.61,3.1-6.72s1.12-2.3,1.71-2.24,0,4.77,0,4.77a9.12,9.12,0,0,0,.92,4.22l.17.33,0,.37a49.28,49.28,0,0,0-.37,7.23,38.66,38.66,0,0,1-.57,7.92,47.31,47.31,0,0,1-1.42,5.51,4.2,4.2,0,0,0,.44,3.58l.28.51-.23.53a35.45,35.45,0,0,0-1.89,6.22c-.77,3.31-1.48,6.69-2.15,10l-1,4.69.29.66c.8,1.9.69,2.84.25,3.75a3.07,3.07,0,0,0,0,2.57l.28.71-.53.55a6.85,6.85,0,0,0-1.6,3.83c-.05.29-.08.53-.14.75a36.76,36.76,0,0,0-1.08,9.5,23.51,23.51,0,0,1-1,6,23.2,23.2,0,0,0-1.06,8.71l0,.32-.13.3c-.16.42-.28.7-.37,1l-.27.9c-.14.43-.27.85-.39,1.28l-.22.73a15.13,15.13,0,0,0-.61,2.45c-.21,1.49-.43,3-.65,4.46l-.12.84c-.72,4.83-1.47,9.84-1.87,14.85a52.65,52.65,0,0,1-2.75,13.34c-1.25,3.64-2.27,7.57-1.18,11.65a4.58,4.58,0,0,1-.49,3.48,21.83,21.83,0,0,0-2,8.56c-.1,1.11-.2,2.15-.36,3.14a16.39,16.39,0,0,0-.16,2.73,6.4,6.4,0,0,1-.47,3.15l-.31.57,0,.64a33.85,33.85,0,0,1-.91,7.81,33.77,33.77,0,0,0-.92,10.08l0,.2,0,.19c0,.2-.17.56-.26.82s-.22.64-.31.95-.23.71-.36,1.07a11.14,11.14,0,0,0-.93,3.88,8.85,8.85,0,0,1-.24,1.78,9.42,9.42,0,0,0,0,5.39l.15.38-.37,1.19A30.53,30.53,0,0,0,213.2,258c-.09.77-.11,1.54-.13,2.31a12.68,12.68,0,0,1-.39,3.35c-.61,2.15-1.31,4.59-.58,7.38l0,.3a7,7,0,0,1-.5,2,15.22,15.22,0,0,0-.76,2.76c-.22,1.58-.49,3.14-.77,4.71a59,59,0,0,0-1.27,12.84,41.59,41.59,0,0,1-1.19,11.3c-.23,1-.52,2-.82,3a29.86,29.86,0,0,0-1.4,6.85c-.11,2.55-1.3,3.15-4.66,4.21a6.59,6.59,0,0,1-1.84.18c-.49,0-1,0-1.46.07-5.25.5-10,1.08-14.64,3.17a41.64,41.64,0,0,1-10.27,2.79,75,75,0,0,0-11.93,3.14l-2.38.85-.42.16c-3.21,1.17-6.25,2.29-9.47,2.45a18.84,18.84,0,0,0-7.29,2.13c-1.81.87-3.66,1.6-5.62,2.37l-1.93.76-.31-.05c-3.7-.5-6.78.78-9.77,2a27.51,27.51,0,0,1-4.24,1.52,18,18,0,0,0-5.44,2.49c-2.65,1.66-2.82,1.7-6.52,1.81-1.59,0-4.54.13-6.51,2.57l-.55.69-.82-.33a4.9,4.9,0,0,0-3.88.16c-4.8,2.41-10.08,3.45-15.2,4.45l-.78.15a27.73,27.73,0,0,0-5.16,1.34,17.37,17.37,0,0,0-4.2,2.32l-.43.32-.52-.11a5.22,5.22,0,0,0-3.46.66l-.34.16-.68.09a4.37,4.37,0,0,0-2.28.23s-2,.81-2.3.33S61,355.86,61,355.86Zm126.72,66.82a16.93,16.93,0,0,0-1.29,6.67,16.43,16.43,0,0,0,.18,1.72,7.13,7.13,0,0,1,.11,1.66,4.72,4.72,0,0,1-.81,2.23,3.87,3.87,0,0,0-.81,3.63l.1.46-.23.4a21.25,21.25,0,0,0-2.42,11.2,7.4,7.4,0,0,1-1,3.27l-.31.67c-.34.73-.71,1.47-1.09,2.22l-.14.29c-1.95,3.87-4.15,8.25-3.49,13.45a5.61,5.61,0,0,1-.46,1.83c-.13.35-.23.62-.32.89l-.58,1.83a45.05,45.05,0,0,1-2.09,5.72,5.43,5.43,0,0,0,.13,4.95l.26.47v.3a1.52,1.52,0,0,1-.57,1.12,5,5,0,0,1-.51.4,7.44,7.44,0,0,0-1.89,1.79l-.72,1-1-.8a26.6,26.6,0,0,1-6.15-6.48,9.92,9.92,0,0,0-2.47-2.82,29.83,29.83,0,0,1-6.27-6.36,7.26,7.26,0,0,0-2.31-2.19,34.13,34.13,0,0,1-11.12-9.68,9.93,9.93,0,0,0-3-2.38,7,7,0,0,1-1.72-1.24,16.78,16.78,0,0,0-6.06-4.74,12.25,12.25,0,0,1-3.17-2.07l-1.19-1.09a19,19,0,0,1-4-4.39,22.9,22.9,0,0,0-5.08-5.81,26.4,26.4,0,0,1-3.25-3.28,37.52,37.52,0,0,0-7-6.44c-1-.8-2-1.56-2.94-2.35-.41-.35-.85-.67-1.3-1a10.36,10.36,0,0,1-1.44-1.18l-1.38-1.52c-3.19-3.54-6.81-7.55-12-9.48l-.37-.14-.22-.33a17.7,17.7,0,0,0-5-4.68A14.11,14.11,0,0,1,77.48,407a4.23,4.23,0,0,0-.76-1.16l-.37-.39a10.14,10.14,0,0,0-2.29-2,19.75,19.75,0,0,1-4.12-3.61,25.27,25.27,0,0,0-4.77-4.2,62,62,0,0,1-6.91-5.33c-.81-.69-1.59-1.35-2.37-2-1-.78-1.89-1.6-2.82-2.45l-1.37-1.24,1.69-.73a47.09,47.09,0,0,1,8.66-2.49l.43-.09a41.92,41.92,0,0,0,11.81-4.45,28.07,28.07,0,0,1,6.48-2.36c2.13-.58,4.27-1,6.53-1.52a73.17,73.17,0,0,0,11.88-3.21c1.45-.57,3.13-1.21,4.78-1.75,2.44-.8,4.87-1.42,7.45-2.07A70.22,70.22,0,0,0,125,361.48a3.43,3.43,0,0,1,1.27-.2,17.61,17.61,0,0,0,7-1.8c.77-.32,1.53-.64,2.31-.9a11.21,11.21,0,0,0,1.75-.8,5.62,5.62,0,0,1,1.19-.55,37.6,37.6,0,0,0,5.65-1.43,20.94,20.94,0,0,1,7.16-1.39,7.54,7.54,0,0,0,4.37-1.14,8.69,8.69,0,0,1,4.2-1.25l1.23-.17a17.11,17.11,0,0,0,3.26-1c.5-.2.92-.36,1.34-.49,1.58-.51,3.16-1.07,4.74-1.63a56.69,56.69,0,0,1,10.58-3.06,49.4,49.4,0,0,0,6.78-1.69,35.25,35.25,0,0,1,7.65-1.72,10.94,10.94,0,0,0,4.27-1.42l2.2-1.15-.47,2.43a71.18,71.18,0,0,0-1,8.83c-.27,4.09-.54,8-1.78,11.66a5.35,5.35,0,0,0-.22,1.92,39.47,39.47,0,0,1-2,12.83l-.13.39a7.36,7.36,0,0,0-.61,3.53,16.5,16.5,0,0,1-.79,6.14l-.08.29q-.21.83-.39,1.65l-.44,1.85c-.76,3.15-1.54,6.41-1.08,10a5.93,5.93,0,0,1-.32,1.87c-.09.36-.18.71-.26,1.06-.14.65-.31,1.29-.49,1.93a21,21,0,0,0-1,5.08c-.08,3.4-1.29,6.51-2.56,9.81Zm247.09,26.49a18.46,18.46,0,0,1-4.07,1.51l-.81.23a11.24,11.24,0,0,0-3.05,1.58,10,10,0,0,1-1.7,1l-1.88.71a27.65,27.65,0,0,1-6.25,1.88,44.8,44.8,0,0,0-10.7,3,12.94,12.94,0,0,1-4.75,1.32c-4.38,0-8.11,1.62-11.11,2.92-4.75,2.06-9.23,4-14.21,4-2.95,0-5.43,1.29-7.63,2.41l-1.1.56a112.85,112.85,0,0,1-15.39,5.79c-2.06.66-4.12,1.32-6.16,2-1.52.52-3.06,1-4.6,1.46-4.2,1.27-8.54,2.6-12.55,5a14.91,14.91,0,0,1-3,1.23,23.7,23.7,0,0,0-3,1.17c-1.29.63-2.62,1.19-4,1.79a53.3,53.3,0,0,0-7.71,3.77,20.38,20.38,0,0,1-4.56,1.85c-.93.29-1.84.58-2.72.92s-2,.72-3.09,1.07a33.87,33.87,0,0,0-8.48,3.64,39.64,39.64,0,0,1-5.68,3,42.09,42.09,0,0,0-6.84,3.65,37.68,37.68,0,0,1-14.26,5.95,13.06,13.06,0,0,0-4.21,1.69c-2.42,1.5-4.89,2.79-7.5,4.16l-2.9,1.53a38.64,38.64,0,0,1-11.77,4.39l-.47.06a4.64,4.64,0,0,0-2.89,1.07c-2,1.94-4.7,2.71-7.54,3.52a33.48,33.48,0,0,0-5.51,1.92l-1,.47c-.84.38-1.67.77-2.52,1.24a15.32,15.32,0,0,0-4.25,3.43s-.83,1.15-1.24,1.1-.77-1.42-.77-1.42a17.27,17.27,0,0,0-5.64-7.31,63.78,63.78,0,0,1-9-8.94,73.67,73.67,0,0,0-9-9.05l-.43-.56c-.16-.3-.27-.47-.38-.64l-.49-.76,1.35-1.48a27.16,27.16,0,0,0,1.87-2.16,8.71,8.71,0,0,0,1.79-3.62,18.72,18.72,0,0,0,.27-2.67,8.91,8.91,0,0,1,.44-3.07,28.18,28.18,0,0,0,1.21-3.55c.23-.81.44-1.54.71-2.24a4,4,0,0,0,0-2.8l-.24-.68.49-.52a6.14,6.14,0,0,0,1.05-1.49c1.08-2.28,2.06-4.6,3-6.86l.62-1.5a5.2,5.2,0,0,0,.46-2.53c-.27-2.86.64-5.6,1.61-8.5.5-1.49,1-3,1.39-4.64a8.7,8.7,0,0,1,.63-1.61,11.12,11.12,0,0,0,1-2.6,4.18,4.18,0,0,1,.26-.68c.51-1.16,1.32-3,.28-4.9l-.28-.52.23-.53a4.71,4.71,0,0,0,.48-2.7c0-.2-.11-.71-.14-1.08l0-.76.67-.36a3.11,3.11,0,0,0,1.57-2.48,57.39,57.39,0,0,1,2.71-12.64c.63-2.17,1.28-4.37,1.8-6.6l.13-.54-.14-.53a8,8,0,0,1,.39-3.81,19.14,19.14,0,0,0,.62-3.36l0-.34.18-.27c1.85-2.67,2-5.63,2.07-8.24a25.71,25.71,0,0,1,.31-3.44,48.61,48.61,0,0,0,1.3-12.41,4.33,4.33,0,0,1,.3-1.88,21,21,0,0,0,1.66-9.83,10.75,10.75,0,0,1,1-4.74,9.69,9.69,0,0,0,.66-3.63,5.66,5.66,0,0,1,.18-1.55,8.37,8.37,0,0,0,.38-3.75,4,4,0,0,1,.11-1.84,16.45,16.45,0,0,0,1.24-8.54,7.85,7.85,0,0,1,0-1.19,13.07,13.07,0,0,1,.95-3.87,21.44,21.44,0,0,0,1.05-3.68,25.41,25.41,0,0,0,.11-5.77v-.34c0-.83-.09-1.64-.09-2.35a2.78,2.78,0,0,1,.43-1.2l.27-.5.59-.18,1-.17a14.18,14.18,0,0,0,5.25-1.55l.45-.27.5.16c3.43,1,6.42-.25,8.83-1.28.64-.28,1.28-.56,1.92-.79,5.38-1.89,10.66-3.63,16.11-4.08a14.18,14.18,0,0,0,6.33-1.72l.35-.21.74.1a7.26,7.26,0,0,0,3.86-.28,29.46,29.46,0,0,1,6.72-1.53,42.59,42.59,0,0,0,6.26-1.26,36.58,36.58,0,0,1,8.29-1.14l1.93-.12-.77,1.78a3,3,0,0,0,.69,3.28c1.47,1.51,3,1.94,4.57,1.33a1.44,1.44,0,0,1,.76-.22c.32,0,.64.65.64.65a16.53,16.53,0,0,0,5,4.4l.74.47c4.13,2.58,8.81,5.52,13.17,8.47a5.33,5.33,0,0,0,3.77.68h.62l.52.5c1.5,2.14,4,2.71,5.93,3a5.92,5.92,0,0,1,2.59,1.6,33.74,33.74,0,0,0,6.74,4.58c.83.47,1.67.93,2.48,1.44a4.73,4.73,0,0,0,3.32.54l.18,0h.28a7.37,7.37,0,0,1,3.4,1.38,36,36,0,0,0,12.69,6.71l.31.09.57.16.42.25a18.93,18.93,0,0,0,10.33,5,7.32,7.32,0,0,1,2.64,1.83,19.5,19.5,0,0,0,9.63,5,10.19,10.19,0,0,1,3.06,1.47c.54.34,1.07.66,1.6.95.79.43,1.56.93,2.34,1.43a18.82,18.82,0,0,0,6.17,3,20.86,20.86,0,0,1,6.68,3.14l1.23.75,1.65,1c2.93,1.87,6,3.84,9.76,4.57l.41.08.26.32a4,4,0,0,0,2.78,1.6l.42,0,.32.28a13.15,13.15,0,0,0,5,2.45l1.08.35a18.75,18.75,0,0,1,4.21,2.09,5.2,5.2,0,0,1,1.8,1.8,3.41,3.41,0,0,0,4.18,1.91l.47-.1.41.25a9,9,0,0,0,2.1.83,5.31,5.31,0,0,1,1,.35,20.86,20.86,0,0,1,2.22,1.42,7.79,7.79,0,0,0,2.15,1.2,2.16,2.16,0,0,0,1.3-.38l.61.56c.28.25.49.45.71.62,2.59,2.08,5.66,3,8.36,3.77l2.26.66a8,8,0,0,1,2.61,1c1.28.91,1.88,1.49,1.88,2.32,0,3.45,1.48,6,2.94,8.55a27,27,0,0,1,1.72,3.31,6.61,6.61,0,0,0,3.67,3.47l2.56,1.13L474,431a30.92,30.92,0,0,0-5,2.77,28.88,28.88,0,0,1-3.86,2.22c-2.34,1.05-4.65,2.21-6.88,3.32-2,1-4,2-6,2.9a64,64,0,0,1-10.09,3.8A31.91,31.91,0,0,0,434.81,449.17Z"/>
        <polygon class="cls-1" points="485.55 392.53 485.55 392.53 485.55 392.53 485.55 392.53"/>
      </g>
    </g>
  </g>
</svg>
