<svg xmlns="http://www.w3.org/2000/svg" width="1200" height="304.45" viewBox="0 0 1200 304.45">
  <defs>
    <style>
      .cls-1 {
        fill: #fff;
      }
    </style>
  </defs>
  <g id="Layer_2" data-name="Layer 2">
    <g id="Layer_1-2" data-name="Layer 1">
      <g>
        <polygon class="cls-1" points="496.81 75.8 573.37 75.8 573.37 279.41 626.28 279.41 626.28 75.8 703.19 75.8 703.19 25.04 496.81 25.04 496.81 75.8"/>
        <path class="cls-1" d="M225.56,109.93c0-46.81-38.24-84.89-85.25-84.89H0V279.41H52.91V192.3h73.15l50.54,87.11H234l-56.13-95.6C206.91,169.62,225.56,140.82,225.56,109.93Zm-52.91,0c0,19.61-14.51,35.56-32.34,35.56H52.91V74.73h87.4C158.14,74.73,172.65,90.52,172.65,109.93Z"/>
        <polygon class="cls-1" points="740.48 75.8 795.07 75.8 795.07 228.65 740.48 228.65 740.48 279.41 902.57 279.41 902.57 228.65 847.98 228.65 847.98 75.8 902.57 75.8 902.57 25.04 740.48 25.04 740.48 75.8"/>
        <path class="cls-1" d="M1067.8,20c-72.9,0-132.2,59.3-132.2,132.2s59.3,132.2,132.2,132.2S1200,225.12,1200,152.23,1140.69,20,1067.8,20Zm74.59,132.2a74.59,74.59,0,1,1-74.59-74.59A74.67,74.67,0,0,1,1142.39,152.23Z"/>
        <g>
          <polygon class="cls-1" points="278.21 188.47 278.21 188.47 278.21 188.47 278.21 188.47"/>
          <polygon class="cls-1" points="351.29 240.22 351.29 240.22 351.29 240.22 351.29 240.22"/>
          <polygon class="cls-1" points="330.1 99.16 330.1 99.16 330.1 99.16 330.1 99.16"/>
          <path class="cls-1" d="M473.47,252.29a4.61,4.61,0,0,0,1.83-1.22,3,3,0,0,1,2.32-1,12.83,12.83,0,0,0,5.42-1.71,58.72,58.72,0,0,1,7-3.15c1.89-.76,3.85-1.54,5.74-2.48l1.8-.92a38.1,38.1,0,0,1,4.89-2.26,47.78,47.78,0,0,0,5.15-2.27c.69-.34,1.29-.64,1.89-.92a3.57,3.57,0,0,0,.69-.46l.27-.14c3.41-.72,5.17-3.42,6.58-5.59l.59-.89c1.48-2.19,1.28-4.49-.59-6.64a8.81,8.81,0,0,0-4.26-2.37,2.46,2.46,0,0,0-1.82.11,10.26,10.26,0,0,1-1.75.62c-.76.23-2,.79-2.41.93s-1.1.16-.93-.69a7,7,0,0,0-.2-3.23,2,2,0,0,0-.55-.87L505,217l0-.21c-.61-4-4.15-5.13-6.49-5.84a1.9,1.9,0,0,0-.35-.08l-.3-.05-.16-.26a3.69,3.69,0,0,0-.91-1l-.24-.2-.13-.44a6,6,0,0,0-.62-2.58,9.16,9.16,0,0,1-.38-1,4.92,4.92,0,0,0-1.69-2.6l-.33-.26.11-.4a3,3,0,0,0-.59-2.91,15.1,15.1,0,0,1-2.28-4.12c-.23-.53-.46-1.06-.7-1.58-.09-.2-.18-.4-.26-.6a8.34,8.34,0,0,0-1.18-2.17l-.17-.2,0-.26a2.8,2.8,0,0,0-.7-1.88l-.21-.29.16-.39L486.8,186l-1.38-2.81c-.21-.43-.44-.87-.67-1.3a12.76,12.76,0,0,1-1.22-2.75,10.43,10.43,0,0,0-1.47-3,14.28,14.28,0,0,1-.83-1.43c-.7-1.47-1.47-2.92-2.27-4.3l-.4-.66a6.57,6.57,0,0,1-1.19-2.83,2.69,2.69,0,0,0-1.07-1.83l-.33-.3.23-.59-.34-.51c-.14-.22-.27-.44-.41-.65a14.65,14.65,0,0,0-1.19-1.76,7.07,7.07,0,0,1-1.41-3,7.37,7.37,0,0,0-2-3.74,11.3,11.3,0,0,1-2-3.13l-.11-.21a3.62,3.62,0,0,1-.28-.92,4.08,4.08,0,0,0-1.51-2.67l-.15-.15a2.33,2.33,0,0,1-.31-.72,3.71,3.71,0,0,0-1.19-1.93l-.17-.21c-.52-1-1.1-2-1.66-2.91a27,27,0,0,1-2.55-4.94,6.75,6.75,0,0,0-2.34-3.4l-.29-.2,0-.36a2.49,2.49,0,0,0-.2-1.15,2.35,2.35,0,0,0-1-1.23,4,4,0,0,1-1.29-1.54,12.3,12.3,0,0,0-.76-1.12,5.66,5.66,0,0,1-1.32-2.65,2.93,2.93,0,0,0-.59-1.24,49.39,49.39,0,0,1-4.67-8l-.1-.2c-.28-.56-.56-1.12-.85-1.68a29.48,29.48,0,0,0-2.65-4.26,4.59,4.59,0,0,1-.51-1.13,4.83,4.83,0,0,0-1.57-2.49l-.15-.11-.07-.18a12.15,12.15,0,0,0-1.26-2.35,5.61,5.61,0,0,1-1.26-3.16,2.32,2.32,0,0,0-.91-1.82l-.17-.17a6.4,6.4,0,0,0-1.37-1.2c-.62-.44-1-.71-1.14-1.21a7.63,7.63,0,0,0-1.62-2.54c-.29-.35-.57-.68-.79-1-.68-1-1.32-2.06-1.88-3-.15-.26-.32-.52-.49-.77a5.57,5.57,0,0,1-1.07-2.36,2.11,2.11,0,0,0-.72-1.56,8.2,8.2,0,0,1-2.27-3.35,13,13,0,0,0-2.1-3.48,12,12,0,0,1-1.82-3.21c-.28-.61-.55-1.21-.85-1.78,0-.09-.09-.19-.13-.29a3.2,3.2,0,0,0-.92-1.45,13.8,13.8,0,0,1-3.36-5c-.41-.83-.8-1.63-1.26-2.42s-.91-1.72-1.35-2.65c-.37-.76-.74-1.54-1.16-2.31a6.15,6.15,0,0,0-2.12-2.59l-.3-.17,0-.34a3.17,3.17,0,0,0-.69-1.65c-.1-.12-.15-.2-.2-.27l-.07-.2a5.8,5.8,0,0,0-1.42-2.6,33.78,33.78,0,0,1-4.86-7.78l-.09-.19c-.44-.87-.89-1.74-1.35-2.59a1.79,1.79,0,0,0-.54-.89,5.32,5.32,0,0,1-1.47-2.65,12.55,12.55,0,0,0-.73-1.84l-.1-.21a4.46,4.46,0,0,0-2-2.33l-.14-.09a2.89,2.89,0,0,1-.64-.91,18.58,18.58,0,0,1-1-2.29c-.23-.6-.41-1.1-.59-1.59s-.45-1.28-.71-1.91a4.1,4.1,0,0,0-1.33-1.6,2.19,2.19,0,0,1-.71-.75,33.79,33.79,0,0,0-1.65-3.1c-.45-.77-.85-1.48-1.22-2.2A23.55,23.55,0,0,0,389.46,16,14.91,14.91,0,0,1,387.87,13,26.27,26.27,0,0,0,386,9.09c-.32-.59-.59-1.08-.84-1.58l-.09-.2A2.7,2.7,0,0,0,384.19,6a6.86,6.86,0,0,1-1.62-1.94,14.8,14.8,0,0,0-1.24-1.68l-.16-.2a5,5,0,0,0-1.72-1.5A10.69,10.69,0,0,0,376.86.1L376.45,0a4,4,0,0,0-2.82.78l-.21.12a3.29,3.29,0,0,0-1.57,2.35,17.79,17.79,0,0,1-3.46,6.53,29.47,29.47,0,0,1-2.73,2.89,30.24,30.24,0,0,0-3.31,3.61,38.72,38.72,0,0,0-3.13,4.87,2.91,2.91,0,0,0-.26.75l0,.18-.13.13a21.17,21.17,0,0,0-3.17,4.67,28.76,28.76,0,0,1-1.56,2.62,66.57,66.57,0,0,0-4,7.1c-.44.84-.86,1.66-1.29,2.47l-.25.48a11.49,11.49,0,0,1-1.26,2.06,9.6,9.6,0,0,0-2,3.56l0,.18-.17.21a13.93,13.93,0,0,0-3.12,4.55,13.46,13.46,0,0,1-2.23,3.52,7.53,7.53,0,0,0-1.51,2.71,10.31,10.31,0,0,1-.64,1.44c-2.32,3.94-4.4,7.36-6.36,10.46-.56.89-1.13,1.77-1.71,2.65a76.09,76.09,0,0,0-4,6.64l-.15.19a10.69,10.69,0,0,0-1.87,2.33,9.08,9.08,0,0,1-1.34,1.74,23.15,23.15,0,0,0-3.58,4.49,29.4,29.4,0,0,1-2.26,3.1,15,15,0,0,0-2,2.87,3.68,3.68,0,0,1-1,1,5.24,5.24,0,0,0-1.71,2,10,10,0,0,1-.64,1.17,8,8,0,0,0-1.05,2.22,4.54,4.54,0,0,1-1.25,1.86,8.94,8.94,0,0,0-1.35,1.71l-.31.57a7.17,7.17,0,0,1-1.9,2.55,6.39,6.39,0,0,0-2,2.83,17.54,17.54,0,0,1-2.44,3.93l-.36.48a120,120,0,0,0-8.44,12.83c-.47.85-.89,1.71-1.29,2.54a25.37,25.37,0,0,1-2.25,4c-1.58,2.16-3,4.46-4.3,6.69-.87,1.46-1.82,3-2.78,4.51a50.48,50.48,0,0,0-3.87,7.66l-1.62,3.62a59.12,59.12,0,0,0-2.38,5.67,31.85,31.85,0,0,1-2.68,5.44c-.49.87-1,1.71-1.42,2.56-.23.43-.45.87-.67,1.31l-.08.17c-.17.34-.33.67-.51,1s-.23.45-.34.68a11.12,11.12,0,0,1-.89,1.59l-.48.63a11.7,11.7,0,0,0-2.31,4.21l-.08.19c-.07.09-.21.28-.32.41l-.27.33-1.06,1.39-.26.33c-1,1.31-2.07,2.67-3,4.08a2.24,2.24,0,0,0-.35,1l0,.29-.25.16a3.66,3.66,0,0,0-1.27,2l-.07.21a14.93,14.93,0,0,0-.54,2.06l-.17.76a9.05,9.05,0,0,0-.28,1.86,7,7,0,0,0,.32,2.18c.17.23.22.58-.25.88a2.25,2.25,0,0,1-1.58.32l-.4-.12c-1.69-.48-2.91-.82-4.88.35-.81.49-1.52.88-1.52.88l-.59.25a5.75,5.75,0,0,1-1.85.21,5,5,0,0,0-1.55.06,6.65,6.65,0,0,0-3.92,3l-.14.15a1.88,1.88,0,0,0-1,1.33,7.12,7.12,0,0,0,.06,1.74c0,.29.06.43.07.57l.08.9.92.18-.13.63a2.24,2.24,0,0,0,.16,1.24,1.73,1.73,0,0,0,1.06,1.07,3.57,3.57,0,0,1,.64.31,3.69,3.69,0,0,0,2.52.61,7.81,7.81,0,0,1,3.45.16,3.37,3.37,0,0,0,2.18-.28,5,5,0,0,1,2.08-.67,1.89,1.89,0,0,1,1.43.35,33.32,33.32,0,0,1,6.36,6.21,4.33,4.33,0,0,0,3,2.17l.29,0,.52.79a5.18,5.18,0,0,0,1.52,1.38,5,5,0,0,1,.72.54,1.24,1.24,0,0,1,.19.24,2.22,2.22,0,0,0,2,1.11l.26,0,.8.65a33,33,0,0,1,3.09,2.72,11.76,11.76,0,0,0,2.3,2l.62.38c1.6,1,3.11,1.93,3.79,3.62a6.25,6.25,0,0,0,3.08,3.16,14.69,14.69,0,0,1,5.13,4.63,6.34,6.34,0,0,0,1.82,1.58,3.12,3.12,0,0,1,1.25,1.14l.12.27.23.18a30,30,0,0,1,3.13,3.06,23.17,23.17,0,0,0,4.94,4.38,12.2,12.2,0,0,1,4.32,4.36,6.5,6.5,0,0,0,3.2,2.9,7.66,7.66,0,0,1,1.75,1.14c.34.26.67.51,1,.74a.87.87,0,0,0,.18.11l.18.1.09.19a8.11,8.11,0,0,0,2.9,3l.17.13a9.87,9.87,0,0,1,1.53,1.51c.37.41.74.83,1.16,1.23l.24.22c1.82,1.72,3.7,3.5,5.67,5.19l.25.21a13.63,13.63,0,0,1,3.3,3.55,10.35,10.35,0,0,0,3.52,3.51,21,21,0,0,1,3.92,3.7,34.9,34.9,0,0,0,2.54,2.65,24.08,24.08,0,0,1,2.25,2.51,27.92,27.92,0,0,0,2.2,2.52,11.56,11.56,0,0,0,6.73,3.27,5.7,5.7,0,0,0,3.22-.66,7.88,7.88,0,0,1,1-.39,3.07,3.07,0,0,0,1.38-.91c.47-.53.93-.33.94.42a3,3,0,0,0,1,1.93l.33.35-.25.41c-.39.65-.79,1.31-1.17,2-1.13,2.12-1.64,5.22,2.36,7.92a6.47,6.47,0,0,0,3.53,1.29,4.22,4.22,0,0,0,1.77-.39,18.51,18.51,0,0,1,3.85-1.17,29.31,29.31,0,0,0,3.2-.88c.44-.15.88-.28,1.33-.41a9.08,9.08,0,0,0,4.69-2.42l.13-.15.2,0,.34-.06a6.42,6.42,0,0,0,.81-.18l1-.31.9-.28a1.79,1.79,0,0,0,1.06-.88l.33-.55.31.19,1.31-.55c.62-.25,1.24-.5,1.85-.8s.87-.48,1.26-.72l.14-.08.72-.42.84-.46a17.21,17.21,0,0,1,2.55-1.27,44.24,44.24,0,0,0,9.07-4.77,6,6,0,0,1,3.11-1.17c2.14-.08,2.5-.42,4.06-2.19l.26-.3.45,0a2.72,2.72,0,0,0,2.69-.58c2.62-2.28,5.69-3.62,9.43-5.13l.29-.11a6.79,6.79,0,0,0,1-.44c.43-.26.86-.54,1.28-.84a9.6,9.6,0,0,1,2.25-1.26,17.87,17.87,0,0,0,4.3-1.8,5.24,5.24,0,0,1,1.81-.58,6,6,0,0,0,2.62-1.2,28.28,28.28,0,0,1,2.85-1.71l1.51-.86a10.7,10.7,0,0,1,2.57-1,10.51,10.51,0,0,0,4.12-1.86,14.65,14.65,0,0,1,3.95-2.07c.67-.28,1.25-.52,1.81-.78a7.44,7.44,0,0,1,1.95-.61,20.45,20.45,0,0,0,8.5-3.65l.27-.19,0-.32.67.08a6.4,6.4,0,0,0,3.83-.94,5.56,5.56,0,0,1,2.1-.73,2.64,2.64,0,0,0,1.81-1.25,3.54,3.54,0,0,1,2.58-1.44,3.67,3.67,0,0,0,2-1.23c1.11-1.15,1.57-1.52,2.45-1.17l.54.22.5-.28A5.2,5.2,0,0,1,473.47,252.29ZM379.3,27.08c0-.17.09-.43.14-.61s.14-.77.4-.82.55.42.73.65,1.05,1.6,1.63,2.25a19.55,19.55,0,0,1,2.27,3.4c.21.37.43.75.65,1.11a25.3,25.3,0,0,1,1.27,2.62c.35.81.7,1.6,1.11,2.37a14.8,14.8,0,0,0,1.73,2.5c.19.21.37.41.56.6s.39.41.53.57l.16.19,0,.25a2.59,2.59,0,0,0,.81,1.82l.34.41-.17.54.26.46c.24.44.47.92.7,1.43a9,9,0,0,0,2.83,4,2.52,2.52,0,0,1,.76,1.4,16.64,16.64,0,0,0,1.37,3.14l.77,1.37a143.5,143.5,0,0,0,7.51,12.46l.31.42a3.42,3.42,0,0,1,.58.93,21.38,21.38,0,0,0,3.37,6.19,27.68,27.68,0,0,1,2.3,3.62A5.25,5.25,0,0,0,413.4,82a4.92,4.92,0,0,1,1.28,2.22l.22.61a18.1,18.1,0,0,0,1.21,2.87,14.14,14.14,0,0,0,1.44,2c.32.4.55.69.76,1a5.1,5.1,0,0,1,.66,1.09,27,27,0,0,0,1.73,3.63,27.39,27.39,0,0,1,1.55,3.19,6.1,6.1,0,0,0,2.08,2.63l.43.35c1.14.91,1.9,1.59,2.06,2.56a16.25,16.25,0,0,0,2.88,6.21c.47.71,1,1.39,1.47,2a20.36,20.36,0,0,1,2.42,3.76,23.74,23.74,0,0,0,1.69,3,16.19,16.19,0,0,1,1.86,3.56,6.8,6.8,0,0,0,1.24,2.08,10,10,0,0,0,1.18,1.24l.29.25-.08.38a1.91,1.91,0,0,0,.26,1.61c.33.48.65,1,1,1.46a15.09,15.09,0,0,0,3.84,4.54l.38.28-.15.44a2.48,2.48,0,0,0,.27,2.35c.71,1.07,1.41,2.19,2.08,3.28s1.3,2.11,2,3.14a28.54,28.54,0,0,1,1.56,2.82,21,21,0,0,0,2.48,4.12,19.39,19.39,0,0,1,2.77,5.26,34.46,34.46,0,0,0,2.43,4.68l.45.77a10.23,10.23,0,0,0,1,1.38c.3.37.53.66.7.92a4.92,4.92,0,0,1,.2.49,3.21,3.21,0,0,0,1,1.66l.18.15.05.22a5.3,5.3,0,0,0,1,2.06,19.38,19.38,0,0,1,1.81,3.34c.28.61.57,1.22.88,1.82l.46.9a76.33,76.33,0,0,1,4.08,8.67,4.72,4.72,0,0,0,1.09,1.82,9.5,9.5,0,0,1,1.95,3.48c.12.33.25.65.39,1,.4,1,.78,2,1.15,3a37.27,37.27,0,0,0,3.22,7.07l1.44,2.31s-2.73-1.45-3-1.51-.49.15-.7.14-.67-.42-.85-.51c-.86-.4-1.72-.83-2.58-1.26-1.54-.76-3.09-1.52-4.67-2.18a54.54,54.54,0,0,1-5.3-2.44c-1.13-.61-2.25-1.24-3.37-1.88-1.31-.75-2.64-1.5-4-2.22-.46-.24-.92-.46-1.38-.68a19.35,19.35,0,0,1-2.39-1.3,13.32,13.32,0,0,0-3.06-1.44l-1.13-.44a18,18,0,0,1-2.22-1.21,12.55,12.55,0,0,0-4.54-2l-.26,0-.15-.21a7.4,7.4,0,0,0-3.88-2.46c-.39-.14-.78-.28-1.16-.44s-.55-.24-.83-.35a15.28,15.28,0,0,1-2.26-1.09,5.1,5.1,0,0,0-1.7-.62,2.24,2.24,0,0,1-1-.4l-.15-.22s-1.28-.87-1.53-1a11.57,11.57,0,0,0-2-.54l-.21,0-.15-.15c-.07-.07-.18-.19-.26-.29a3.43,3.43,0,0,0-1.93-1.28,2.16,2.16,0,0,0-.91,0l-.33.08-.25-.23a4.37,4.37,0,0,0-1.3-.82l-.71-.47a4.26,4.26,0,0,1-2-3.42,10.62,10.62,0,0,0-.67-3c-.13-.37-.24-.67-.33-1-.3-1.07-.55-2.14-.82-3.27a36.11,36.11,0,0,0-1.88-6.34l-.06-.24a6.22,6.22,0,0,0-1.51-4.11l-.14-.15,0-.2a2.52,2.52,0,0,1,.13-.83,3.48,3.48,0,0,0-.24-2.83,6.57,6.57,0,0,1-.51-1.06l-.27-.6c-.11-.24-.23-.48-.35-.71a8.75,8.75,0,0,1-.58-1.31c-.23-.8-.42-1.62-.63-2.48-.16-.7-.31-1.34-.48-2l-.14-.55a8.78,8.78,0,0,0-1.56-3.64l-.14-.17v-.22a6.27,6.27,0,0,0-.42-1.89,4,4,0,0,1-.3-1.26,15.16,15.16,0,0,0-1.35-5.75c-.16-.41-.32-.81-.46-1.22a5.71,5.71,0,0,0-.36-.74l-.19-.48a12.34,12.34,0,0,0-.86-3.77c-.12-.35-.24-.71-.35-1.07-.2-.65-.37-1.32-.54-2-.21-.89-.42-1.75-.71-2.62-.11-.34-.19-.69-.27-1a8,8,0,0,0-1.18-3.05,3.5,3.5,0,0,1-.44-1.82l0-.51c0-.14,0-.29,0-.44a5,5,0,0,0-.22-1.74l-.32-.92a42.62,42.62,0,0,0-2.53-6.31l-.35-.63.21-.51L396.5,96c-.18-.63-.38-1.26-.58-1.89-.45-1.45-.86-2.78-1.15-4.14a20.16,20.16,0,0,0-.79-2.55,10.24,10.24,0,0,1-.83-3.74v-.35L393,83a7.07,7.07,0,0,1-.65-2.13,9.8,9.8,0,0,0-.68-2.36,8.26,8.26,0,0,1-.58-2,9.4,9.4,0,0,0-.74-2.55,7.76,7.76,0,0,1-.56-2,10.56,10.56,0,0,0-.52-2.1c-.58-1.46-1-3-1.45-4.52a44,44,0,0,0-1.95-5.73l-.21-.47a4.4,4.4,0,0,1-.5-1.38,23.17,23.17,0,0,0-1.49-5.7l-.06-.18c-.16-.44-.31-.87-.46-1.31-.06-.19-.14-.38-.22-.57s-.13-.3-.16-.4l0-.1v-.1a13.39,13.39,0,0,0-1.15-5,18.24,18.24,0,0,1-.83-2.53c-.09-.39-.16-.8-.23-1.21a10.65,10.65,0,0,0-.95-3.31A6.55,6.55,0,0,1,379,35a13,13,0,0,0-.32-1.73,3.17,3.17,0,0,1-.06-1.17C378.79,30.45,379,28.73,379.3,27.08Zm-11.1,82.55a27,27,0,0,1,.63-3.49,7.63,7.63,0,0,0,.13-2.66,5.62,5.62,0,0,1,.05-1.72,34.46,34.46,0,0,0,.91-6c.13-1.42.25-2.68.47-4,.12-.67.2-1.35.28-2,.1-.85.19-1.59.34-2.3a6.37,6.37,0,0,0,.1-1.47,2.86,2.86,0,0,1,.15-1.27,13.16,13.16,0,0,0,.68-2.17c.14-.55.25-1,.39-1.37a12.05,12.05,0,0,0,.76-4.34,19.87,19.87,0,0,1,.19-2.72,16.28,16.28,0,0,0,.12-4.37l0-.2.09-.18a5,5,0,0,0,.35-.87s.2-1.77.35-2.88.21-1.31.36-1.33.23.49.36,1.33.36,2,.36,2a3.45,3.45,0,0,1,.15.45,29.83,29.83,0,0,0,1.19,6.78,37.18,37.18,0,0,1,1,4.46,3.93,3.93,0,0,0,.4,1.16,2.16,2.16,0,0,1,.17.38,7.94,7.94,0,0,0,.72,1.83c.51,1,.74,1.57.36,2.26l-.25.45.33,1a46.89,46.89,0,0,1,2.3,10,2.37,2.37,0,0,0,.48,1.14l.11.26a48.05,48.05,0,0,0,1.89,8.06,1.27,1.27,0,0,1,0,.42,14.1,14.1,0,0,0,2,7.93,9.43,9.43,0,0,1,.75,1.78l.26.76,0,.32a4.44,4.44,0,0,0,.29,3.31,9.42,9.42,0,0,1,.46,1.93l.1.54c.06.34.1.69.14,1a11.74,11.74,0,0,0,.42,2.28c.18.57.37,1.14.55,1.72a40.32,40.32,0,0,1,1.91,7.32c0,.32.11.63.18.95a6,6,0,0,1,.17,1.11,6.8,6.8,0,0,0,1,3.22,7.07,7.07,0,0,1,.8,3l0,.34c.07.55.12,1.11.16,1.67a16.05,16.05,0,0,0,1,5l0,.12v.13a6.69,6.69,0,0,0,.37,2,4.35,4.35,0,0,1,.27,1.4,7.72,7.72,0,0,0,.41,2.63,8.27,8.27,0,0,1,.32,1.41l.07.71h-.71a3.58,3.58,0,0,0-2.16.61,2.93,2.93,0,0,1-2.18.41,9.09,9.09,0,0,0-4.36.42l-.8.21-.46.11a33.09,33.09,0,0,1-6.4,1.17,5.1,5.1,0,0,0-2.05.43,13.15,13.15,0,0,1-5.06,1.05l-.32,0a7.19,7.19,0,0,0-1.73.42,3,3,0,0,1-1.61.26l-.47-.12-.42.24a8.68,8.68,0,0,1-2.8.77,15.4,15.4,0,0,0-2.4.54l-1,.34.18-1.05c.12-.68.18-1.34.24-2,0-.44.08-.83.12-1.22l.1-.77a17.47,17.47,0,0,1,.59-3.33,8.44,8.44,0,0,0,.33-2.75,8.86,8.86,0,0,1,.07-1.41c.24-1.61.5-3.52.65-5.55,0-.33.05-.67.07-1a18.3,18.3,0,0,1,.59-4.15,14.53,14.53,0,0,0,.48-4.18c0-.54,0-1,0-1.39l.13-.42a1.43,1.43,0,0,1,.12-.21,2.58,2.58,0,0,0,.38-2.58l-.07-.17,0-.17c0-.16.09-.4.13-.58s.14-.59.18-.87l.16-1.17c.07-.53.14-1.06.22-1.58l.49-3.14c0-.28.11-.56.18-.85a6,6,0,0,0,.22-3.14c-.09-.3,0-.54.18-1a3.78,3.78,0,0,0,.39-1.78,6.21,6.21,0,0,1,0-.84,7.1,7.1,0,0,0,0-1.15,7.7,7.7,0,0,1,.26-2,8.9,8.9,0,0,0,.29-2.91l0-.17.06-.15a2.79,2.79,0,0,0,.24-.74C368,110.89,368.12,110.26,368.2,109.63Zm-97.13,79.88a4.14,4.14,0,0,1,1.24-1.31,6.34,6.34,0,0,0,2.31-3l.13-.29c.61-1.39,1.18-2.68,1.88-4,.47-.83,1-1.65,1.51-2.5a25.08,25.08,0,0,0,3.25-6.53,1.73,1.73,0,0,1,.24-.41,5.67,5.67,0,0,0,.52-.76l.36-.67c.55-1,1.06-2,1.49-3,.29-.66.51-1.33.73-2a12.79,12.79,0,0,1,1.28-3,7.36,7.36,0,0,0,.93-2.26c.28-1,.46-1.58,1-2l.41-.28.09-.48a12.94,12.94,0,0,1,1.2-3.06c.3-.6.61-1.22.87-1.89a8.67,8.67,0,0,1,1.67-3,11.2,11.2,0,0,0,2.66-4.07,24.64,24.64,0,0,1,4.15-7.29,7.16,7.16,0,0,0,1.07-1.58,54,54,0,0,1,3.86-6.38,64.25,64.25,0,0,0,4.1-6.54,18.15,18.15,0,0,0,1-2.31,18.92,18.92,0,0,1,.76-1.74A4.54,4.54,0,0,1,311,118a7.2,7.2,0,0,0,1.77-1.95,27.76,27.76,0,0,1,2.35-3.34,31.77,31.77,0,0,0,2.49-3.56,17.81,17.81,0,0,1,1.78-2.36,14.36,14.36,0,0,0,2.75-4.25l.06-.16.12-.11a24,24,0,0,0,4-5.13h0l.54.34-.53-.36a27.26,27.26,0,0,1,2.88-4,6.71,6.71,0,0,0,1.26-2.27,6.12,6.12,0,0,1,.65-1.38,14,14,0,0,1,1.64-1.76c.46-.44.9-.86,1.31-1.33a3.51,3.51,0,0,0,.66-1.22,2.74,2.74,0,0,1,.17-.42c1.26-2.22,2.72-4.38,4.13-6.48a77.6,77.6,0,0,0,5.45-8.9,2.56,2.56,0,0,1,.33-.45c.1-.13.19-.24.27-.36a42.77,42.77,0,0,0,3.16-5.32,41.59,41.59,0,0,1,3-5,2.16,2.16,0,0,0,.35-.93l.22-.68a5.76,5.76,0,0,1,.43-1.08l1-1.56a30.89,30.89,0,0,0,3.13-6,13.37,13.37,0,0,1,2.1-3.44l.12-.18a7.58,7.58,0,0,0,1.81-3.54,5,5,0,0,1,.65-1.6,5.68,5.68,0,0,0,.89-2.57c0-.57.31-.91.84-1.49a5.51,5.51,0,0,0,1.19-1.74,3.21,3.21,0,0,1,.34-.61c.15-.23.27-.43.38-.63,0,0,1.35-3,1.65-3.58s.6-1.22.91-1.19,0,2.54,0,2.54a4.9,4.9,0,0,0,.5,2.25l.09.17,0,.2a28,28,0,0,0-.2,3.85,20.43,20.43,0,0,1-.3,4.22,23.75,23.75,0,0,1-.76,2.93,2.23,2.23,0,0,0,.24,1.91l.15.27-.13.28a19.86,19.86,0,0,0-1,3.31c-.41,1.77-.79,3.57-1.15,5.31L364,57.19l.15.35a2.14,2.14,0,0,1,.13,2,1.6,1.6,0,0,0,0,1.37l.14.38-.28.29a3.61,3.61,0,0,0-.85,2c0,.16,0,.28-.07.4a19,19,0,0,0-.58,5.06,12.35,12.35,0,0,1-.55,3.2,12.47,12.47,0,0,0-.56,4.64l0,.17-.07.16c-.08.22-.15.38-.19.53l-.15.49L361,79l-.11.39a7.71,7.71,0,0,0-.33,1.3c-.11.8-.22,1.59-.34,2.38l-.07.44c-.38,2.58-.78,5.24-1,7.91a28.46,28.46,0,0,1-1.47,7.1,10.57,10.57,0,0,0-.63,6.21,2.37,2.37,0,0,1-.26,1.85,11.84,11.84,0,0,0-1.08,4.56c-.05.59-.1,1.15-.18,1.67a8.34,8.34,0,0,0-.09,1.46,3.43,3.43,0,0,1-.25,1.68l-.17.3,0,.34a18.36,18.36,0,0,1-.49,4.16,17.91,17.91,0,0,0-.49,5.37v.1l0,.11c0,.1-.09.29-.14.43s-.12.35-.16.51-.13.38-.2.57a5.91,5.91,0,0,0-.49,2.06,4.31,4.31,0,0,1-.13,1,5.09,5.09,0,0,0,0,2.87l.08.2-.19.64a15.64,15.64,0,0,0-.7,2.91c-.05.41-.06.82-.07,1.23a6.79,6.79,0,0,1-.21,1.79,7.26,7.26,0,0,0-.31,3.93l0,.16a3.66,3.66,0,0,1-.27,1,8,8,0,0,0-.4,1.47c-.12.84-.27,1.67-.41,2.51a31,31,0,0,0-.68,6.83,22.39,22.39,0,0,1-.63,6c-.12.54-.28,1.08-.44,1.62a15.79,15.79,0,0,0-.74,3.64c-.07,1.36-.7,1.68-2.49,2.25a3.47,3.47,0,0,1-1,.09l-.77,0a24.05,24.05,0,0,0-7.8,1.69,22.63,22.63,0,0,1-5.47,1.49,38.9,38.9,0,0,0-6.35,1.67c-.43.14-.85.3-1.27.45l-.23.08a17.31,17.31,0,0,1-5,1.31,10,10,0,0,0-3.88,1.13c-1,.47-1.95.85-3,1.26l-1,.41-.17,0a9.69,9.69,0,0,0-5.2,1.07,14.38,14.38,0,0,1-2.26.81,9.86,9.86,0,0,0-2.9,1.33c-1.41.88-1.5.91-3.47,1a4.26,4.26,0,0,0-3.46,1.37l-.3.36-.43-.18a2.66,2.66,0,0,0-2.07.09,30.63,30.63,0,0,1-8.09,2.37l-.42.08a14.88,14.88,0,0,0-2.75.71,10,10,0,0,0-2.24,1.24l-.22.17-.28-.06a2.86,2.86,0,0,0-1.85.35l-.18.09-.36,0a2.4,2.4,0,0,0-1.21.13s-1.06.43-1.22.18S271.07,189.51,271.07,189.51Zm67.49,35.59a9,9,0,0,0-.69,3.56,7,7,0,0,0,.1.91,4.5,4.5,0,0,1,.06.89,2.61,2.61,0,0,1-.43,1.18,2.09,2.09,0,0,0-.44,1.94l.06.24-.13.21a11.33,11.33,0,0,0-1.28,6,4,4,0,0,1-.55,1.74l-.17.35c-.18.4-.38.79-.58,1.19l-.07.15c-1,2.06-2.22,4.4-1.86,7.17a2.88,2.88,0,0,1-.25,1l-.17.47-.31,1a22.57,22.57,0,0,1-1.11,3,2.88,2.88,0,0,0,.07,2.64l.14.25v.16a.8.8,0,0,1-.31.6,2.65,2.65,0,0,1-.26.21,3.86,3.86,0,0,0-1,.95l-.39.56-.53-.42a14,14,0,0,1-3.27-3.46,5.47,5.47,0,0,0-1.32-1.5,15.6,15.6,0,0,1-3.34-3.39,4,4,0,0,0-1.23-1.16,18.17,18.17,0,0,1-5.92-5.15,5.3,5.3,0,0,0-1.58-1.27,3.91,3.91,0,0,1-.92-.66,9,9,0,0,0-3.23-2.53,6.33,6.33,0,0,1-1.69-1.1l-.63-.58a10.1,10.1,0,0,1-2.12-2.34,12.1,12.1,0,0,0-2.7-3.09,14.23,14.23,0,0,1-1.73-1.75A20.57,20.57,0,0,0,295,229.6c-.55-.43-1.07-.83-1.57-1.25-.22-.18-.45-.35-.69-.52a6.54,6.54,0,0,1-.77-.63l-.73-.81c-1.7-1.89-3.63-4-6.4-5l-.2-.08-.12-.17a9.39,9.39,0,0,0-2.66-2.5,7.5,7.5,0,0,1-2-1.83,2.2,2.2,0,0,0-.41-.62l-.19-.21a5.13,5.13,0,0,0-1.22-1.07,10.81,10.81,0,0,1-2.2-1.93,13,13,0,0,0-2.54-2.23,35.73,35.73,0,0,1-3.68-2.84c-.43-.37-.84-.72-1.26-1.06s-1-.85-1.5-1.31l-.73-.66.9-.39a25.18,25.18,0,0,1,4.61-1.32l.23-.05a22.17,22.17,0,0,0,6.29-2.37,14.9,14.9,0,0,1,3.45-1.26c1.14-.31,2.28-.55,3.48-.81a39,39,0,0,0,6.33-1.71c.77-.3,1.66-.64,2.54-.93,1.3-.42,2.6-.75,4-1.1a36.77,36.77,0,0,0,7.22-2.38,1.77,1.77,0,0,1,.68-.1,9.45,9.45,0,0,0,3.74-1c.41-.17.82-.35,1.23-.49a6.52,6.52,0,0,0,.94-.42,2.51,2.51,0,0,1,.63-.29,19.61,19.61,0,0,0,3-.77,11.62,11.62,0,0,1,3.82-.74,3.9,3.9,0,0,0,2.32-.6,4.73,4.73,0,0,1,2.24-.67l.66-.09a8.36,8.36,0,0,0,1.73-.52l.72-.26c.84-.27,1.68-.57,2.52-.87A31,31,0,0,1,335,184.1a24.88,24.88,0,0,0,3.62-.9,19.28,19.28,0,0,1,4.07-.91,5.75,5.75,0,0,0,2.28-.76l1.16-.61-.25,1.29a38.49,38.49,0,0,0-.51,4.71,24.64,24.64,0,0,1-.95,6.21,2.83,2.83,0,0,0-.12,1,21,21,0,0,1-1.07,6.83l-.08.21a3.91,3.91,0,0,0-.32,1.88,8.72,8.72,0,0,1-.42,3.27l0,.16q-.12.44-.21.87l-.24,1a14.37,14.37,0,0,0-.57,5.33,3.1,3.1,0,0,1-.17,1c-.05.2-.1.38-.14.57-.07.34-.17.69-.26,1a11.11,11.11,0,0,0-.51,2.7,15.54,15.54,0,0,1-1.37,5.23Zm131.59,14.11a10.2,10.2,0,0,1-2.17.8l-.43.13a6,6,0,0,0-1.63.84,5,5,0,0,1-.9.51l-1,.38a14.36,14.36,0,0,1-3.33,1,24,24,0,0,0-5.7,1.62,6.91,6.91,0,0,1-2.53.7,14.74,14.74,0,0,0-5.92,1.55c-2.52,1.1-4.91,2.14-7.56,2.15a9.08,9.08,0,0,0-4.06,1.28c-.2.11-.39.21-.59.3a59.31,59.31,0,0,1-8.2,3.09c-1.09.35-2.19.7-3.28,1.08-.81.27-1.63.53-2.45.77a28,28,0,0,0-6.68,2.7,8.62,8.62,0,0,1-1.6.65,13.81,13.81,0,0,0-1.63.62c-.69.34-1.39.64-2.14.95a28.33,28.33,0,0,0-4.1,2,11.2,11.2,0,0,1-2.43,1c-.5.15-1,.31-1.45.49s-1.09.39-1.65.57a17.86,17.86,0,0,0-4.51,1.94,22.81,22.81,0,0,1-3,1.59,22.36,22.36,0,0,0-3.64,1.94,20.09,20.09,0,0,1-7.6,3.18,6.82,6.82,0,0,0-2.24.89c-1.29.8-2.6,1.49-4,2.22l-1.55.81a20.59,20.59,0,0,1-6.27,2.34l-.25,0a2.56,2.56,0,0,0-1.53.57,9.29,9.29,0,0,1-4,1.88,17.32,17.32,0,0,0-2.93,1l-.53.25c-.44.2-.89.41-1.34.66a8.08,8.08,0,0,0-2.26,1.83s-.44.61-.66.58-.41-.76-.41-.76a9.22,9.22,0,0,0-3-3.89,33.07,33.07,0,0,1-4.78-4.76,39.54,39.54,0,0,0-4.78-4.82l-.23-.3c-.09-.15-.14-.25-.2-.33l-.26-.41.71-.79a11.46,11.46,0,0,0,1-1.15,4.74,4.74,0,0,0,1-1.92,10.78,10.78,0,0,0,.14-1.43,4.78,4.78,0,0,1,.23-1.63,14.67,14.67,0,0,0,.65-1.89c.12-.44.23-.82.37-1.2a2.07,2.07,0,0,0,0-1.49l-.13-.36.26-.28a3,3,0,0,0,.56-.79c.58-1.21,1.1-2.45,1.6-3.65l.33-.8a2.73,2.73,0,0,0,.25-1.35,10.94,10.94,0,0,1,.86-4.53,25.44,25.44,0,0,0,.73-2.47,5.37,5.37,0,0,1,.34-.86,6.08,6.08,0,0,0,.52-1.38,1.69,1.69,0,0,1,.13-.36,2.82,2.82,0,0,0,.15-2.61l-.15-.28.13-.28a2.52,2.52,0,0,0,.25-1.44,5.53,5.53,0,0,1-.07-.57l0-.41.36-.19a1.65,1.65,0,0,0,.84-1.32,30.68,30.68,0,0,1,1.44-6.73c.34-1.16.68-2.33,1-3.52l.07-.29-.07-.28a4.15,4.15,0,0,1,.2-2,9.6,9.6,0,0,0,.33-1.8v-.18l.1-.14a7.7,7.7,0,0,0,1.1-4.39,12.66,12.66,0,0,1,.17-1.83,26.13,26.13,0,0,0,.69-6.61,2.34,2.34,0,0,1,.16-1,11.23,11.23,0,0,0,.88-5.24,5.82,5.82,0,0,1,.54-2.52,5.25,5.25,0,0,0,.36-1.94,2.62,2.62,0,0,1,.09-.82,4.55,4.55,0,0,0,.2-2,2.15,2.15,0,0,1,.06-1,8.68,8.68,0,0,0,.66-4.54,3.43,3.43,0,0,1,0-.64,6.81,6.81,0,0,1,.51-2.06,11.22,11.22,0,0,0,.55-2,13.2,13.2,0,0,0,.06-3.07v-.18c0-.45-.05-.88-.05-1.25a1.49,1.49,0,0,1,.23-.65l.14-.26.31-.1.55-.09a7.7,7.7,0,0,0,2.8-.82l.24-.14.26.08a6.58,6.58,0,0,0,4.7-.69c.34-.14.69-.29,1-.41a34.57,34.57,0,0,1,8.58-2.18,7.55,7.55,0,0,0,3.37-.91l.18-.12.4.06a3.83,3.83,0,0,0,2.05-.15,15.47,15.47,0,0,1,3.58-.81,21.52,21.52,0,0,0,3.34-.68,19.38,19.38,0,0,1,4.41-.6l1-.07-.41,1a1.61,1.61,0,0,0,.37,1.75,2.14,2.14,0,0,0,2.43.71.71.71,0,0,1,.4-.12c.18,0,.35.35.35.35a8.68,8.68,0,0,0,2.67,2.34l.39.25c2.2,1.38,4.7,2.94,7,4.51a2.88,2.88,0,0,0,2,.36h.33l.27.27a4.32,4.32,0,0,0,3.16,1.58,3.18,3.18,0,0,1,1.38.86,17.47,17.47,0,0,0,3.59,2.43c.44.26.89.5,1.32.77a2.47,2.47,0,0,0,1.77.29l.09,0h.15a3.84,3.84,0,0,1,1.81.74,19.24,19.24,0,0,0,6.76,3.57l.17,0,.3.08.22.14a10.16,10.16,0,0,0,5.51,2.65,3.92,3.92,0,0,1,1.4,1,10.44,10.44,0,0,0,5.13,2.68,5.48,5.48,0,0,1,1.63.79c.29.18.57.35.85.5s.83.5,1.25.76a10.06,10.06,0,0,0,3.29,1.59,11,11,0,0,1,3.55,1.67l.66.4.88.55a15.3,15.3,0,0,0,5.19,2.43l.22.05.14.17a2.08,2.08,0,0,0,1.48.84l.23,0,.16.14a7,7,0,0,0,2.66,1.31l.58.19a9.93,9.93,0,0,1,2.24,1.11,2.91,2.91,0,0,1,1,1,1.82,1.82,0,0,0,2.23,1l.24-.06.22.13a4.76,4.76,0,0,0,1.12.45,3.3,3.3,0,0,1,.55.18A13.49,13.49,0,0,1,476,215a4.06,4.06,0,0,0,1.14.64,1.15,1.15,0,0,0,.69-.2l.33.29.37.33a12.22,12.22,0,0,0,4.46,2l1.2.35a4.29,4.29,0,0,1,1.39.53c.68.48,1,.79,1,1.24a8.59,8.59,0,0,0,1.56,4.55,13.48,13.48,0,0,1,.91,1.76,3.54,3.54,0,0,0,2,1.85l1.36.6-1.38.56a16.46,16.46,0,0,0-2.66,1.48,15.71,15.71,0,0,1-2,1.18c-1.25.56-2.48,1.17-3.67,1.77s-2.11,1-3.18,1.55a34.81,34.81,0,0,1-5.38,2A16.56,16.56,0,0,0,470.15,239.21Z"/>
          <polygon class="cls-1" points="495.18 207.29 495.19 207.29 495.19 207.29 495.18 207.29"/>
        </g>
      </g>
    </g>
  </g>
</svg>
